<?xml version="1.0" encoding="utf-8"?>
<svg viewBox="0 0 500 500" xmlns="http://www.w3.org/2000/svg">
  <path style="fill: rgb(216, 216, 216); stroke: rgb(0, 0, 0);" d="M 242.664 72.235 C 227.391 68.417 223.024 70.262 217.269 84.65 C 215.93 87.996 211.885 93.071 213.883 97.065 C 215.704 100.709 221.34 105.087 224.041 107.788 C 226.425 110.172 230.598 109.85 233.634 110.609 C 246.031 113.709 257.901 108.304 257.901 94.808 C 257.901 92.949 258.701 89.072 257.901 87.472 C 252.737 77.144 244.515 76.343 238.149 69.977"/>
  <path style="fill: rgb(216, 216, 216); stroke: rgb(0, 0, 0);" d="M 234.199 111.738 C 234.199 126.936 231.044 140.262 228.555 155.192 C 227.728 160.154 227.934 165.464 225.734 169.865 C 224.393 172.546 224.645 188.488 222.348 188.488 C 211.227 195.898 203.979 209.114 194.695 218.397"/>
  <path style="fill: rgb(216, 216, 216); stroke: rgb(0, 0, 0);" d="M 223.476 189.052 C 228.397 191.512 230.154 199.351 233.07 203.725 C 236.745 209.237 246.812 216.704 253.386 216.704"/>
  <path style="fill: rgb(216, 216, 216); stroke: rgb(0, 0, 0);" d="M 285.553 130.361 C 281.305 130.361 272.066 128.075 267.494 130.361 C 265.778 131.219 261.276 132.613 259.029 131.49 C 252.569 128.26 238.051 128.668 230.813 128.668 C 213.098 128.668 197.496 121.896 179.458 121.896"/>
</svg>